<?xml version="1.0" encoding="utf-8"?>
<!-- Generator: Adobe Illustrator 28.2.0, SVG Export Plug-In . SVG Version: 6.00 Build 0)  -->
<!DOCTYPE svg PUBLIC "-//W3C//DTD SVG 1.1//EN" "http://www.w3.org/Graphics/SVG/1.1/DTD/svg11.dtd" [
	<!ENTITY st0 "fill:#020203;">
]>
<svg version="1.1" id="Calque_1" xmlns="http://www.w3.org/2000/svg" xmlns:xlink="http://www.w3.org/1999/xlink" x="0px" y="0px"
	 width="841.89px" height="425.2px" viewBox="0 0 841.89 425.2" style="enable-background:new 0 0 841.89 425.2;"
	 xml:space="preserve">
<path style="&st0;" d="M707.71,369.71h-4.35h-11.9C696.64,369.89,702.05,369.91,707.71,369.71z"/>
<g>
	<rect x="14.77" y="65.9" style="&st0;" width="86.56" height="303.81"/>
	<path style="&st0;" d="M333.3,306.96L215.16,65.9h-96.53l17.32,35.05l-17.32,270.06h77.9c-53.23-79.19-54.09-128.97-48.47-244.95
		l87.86,179.6c21.21,42.84,33.76,64.05,65.79,64.05h44.58V65.9h-79.63C323.78,151.15,332.01,192.27,333.3,306.96z"/>
	<path style="&st0;" d="M827.12,285.31c0-106.9-181.34-90.02-181.34-177.44c0-32.02,30.3-40.68,54.53-40.68
		c46.74,0,59.3,26.83,59.3,51.49c0,18.61-6.93,29-19.04,29c-19.04,0-30.72-12.98-30.72-47.18h-8.65c0,35.91,13.42,67.51,53.67,67.51
		c32.89,0,64.49-13.42,64.49-45.88c0-38.51-36.35-67.95-117.72-67.95c-50.26,0-93.22,12.56-112.98,41.12v-0.03
		c0,0-5.53,6.7-9.01,19.26c-0.1,0.34-0.18,0.7-0.28,1.04c-0.34,1.28-0.67,2.61-0.94,4.02l0,0l0,0c-0.94,4.74-1.43,9.77-1.43,15.08
		c0,111.65,167.48,108.63,167.48,173.55c0,32.46-17.32,48.47-39.39,48.47c-36.35,0-44.58-31.16-44.58-90.88h-86.56
		c0,18.08,3.42,33.17,9.33,45.75c-0.02,0.02-0.03,0.03-0.03,0.03c0.52,1.14,1.36,2.87,2.66,5.1c9.77,17.62,24.75,29.83,41.98,38.02
		c15.51,7.81,35.93,13.79,62.5,14.91h7.97c1.69,0.03,3.36,0.06,5.01,0.06c1.87,0,3.7-0.03,5.55-0.06h0.37h-0.02
		C777.23,368.22,827.12,342.11,827.12,285.31z"/>
	<path style="&st0;" d="M450.15,355.85V240.73l95.65-41.98v-15.14l-95.65,41.98V79.74c53.54,2.01,83.28,8.16,112.41,27.86
		l26.06-41.71H363.59V369.7h240.2l18.39-0.02l-55.55-44.08C537.36,347.37,506.91,354.02,450.15,355.85z"/>
</g>
</svg>
