<?xml version="1.0" encoding="UTF-8"?>
<svg id="uuid-6cc73f29-8283-4324-8f9f-735b8c03b1f5" data-name="Calque 1" xmlns="http://www.w3.org/2000/svg" width="178.71mm" height="70.98mm" viewBox="0 0 506.57 201.21">
  <defs>
    <style>
      .uuid-e02928d9-8a9d-4798-b9ff-f3836d7ef4f7 {
        fill: none;
        stroke: #1d1d1b;
        stroke-miterlimit: 10;
        stroke-width: 6px;
      }

      .uuid-60483360-e9d2-4a60-876e-bb8e6a0eabb2 {
        fill: #1d1d1b;
        stroke-width: 0px;
      }
    </style>
  </defs>
  <path class="uuid-60483360-e9d2-4a60-876e-bb8e6a0eabb2" d="M429.98,197.41h-10.01c3.2.12,6.53.13,10.01,0Z"/>
  <g>
    <rect class="uuid-e02928d9-8a9d-4798-b9ff-f3836d7ef4f7" x="3" y="10.2" width="53.34" height="187.21"/>
    <path class="uuid-e02928d9-8a9d-4798-b9ff-f3836d7ef4f7" d="M199.27,158.74L126.47,10.2h-59.47l10.67,21.6-10.67,166.41h48c-32.8-48.8-33.33-79.47-29.87-150.94l54.14,110.67c13.07,26.4,20.8,39.47,40.54,39.47h27.47V10.2h-49.07c35.2,52.54,40.27,77.87,41.07,148.54Z"/>
    <path class="uuid-e02928d9-8a9d-4798-b9ff-f3836d7ef4f7" d="M503.57,145.41c0-65.87-111.74-55.47-111.74-109.34,0-19.73,18.67-25.07,33.6-25.07,28.8,0,36.54,16.53,36.54,31.73,0,11.47-4.27,17.87-11.73,17.87-11.73,0-18.93-8-18.93-29.07h-5.33c0,22.13,8.27,41.6,33.07,41.6,20.27,0,39.74-8.27,39.74-28.27,0-23.73-22.4-41.87-72.54-41.87-30.97,0-57.44,7.74-69.62,25.34v-.02s-3.41,4.13-5.55,11.87c-.06.21-.11.43-.17.64-.21.79-.41,1.61-.58,2.48,0,0,0,0,0,0,0,0,0,0,0,0-.58,2.92-.88,6.02-.88,9.29,0,68.8,103.2,66.94,103.2,106.94,0,20-10.67,29.87-24.27,29.87-22.4,0-27.47-19.2-27.47-56h-53.34c0,11.14,2.11,20.44,5.75,28.19,0,0-.02.02-.02.02.32.7.84,1.77,1.64,3.14,6.02,10.86,15.25,18.38,25.87,23.43,9.56,4.81,22.13,9.14,38.51,9.19,10.68.03,8.73.08,11.64,0,41.87-1.36,72.63-16.97,72.63-51.96Z"/>
    <path class="uuid-e02928d9-8a9d-4798-b9ff-f3836d7ef4f7" d="M271.27,188.87v-70.94l58.94-25.87v-9.33l-58.94,25.87V18.73c32.99,1.24,51.32,5.03,69.27,17.17l16.06-25.7h-138.67v187.21h159.34s-34.23-27.17-34.23-27.17c-18.03,13.4-36.79,17.5-71.77,18.63Z"/>
  </g>
</svg>